<svg xmlns="http://www.w3.org/2000/svg" xmlns:xlink="http://www.w3.org/1999/xlink" width="658" height="466" viewBox="0 0 658 466">
  <defs>
    <filter id="people-group-solid" x="0" y="0" width="658" height="466" filterUnits="userSpaceOnUse">
      <feOffset dy="3" input="SourceAlpha"/>
      <feGaussianBlur stdDeviation="3" result="blur"/>
      <feFlood flood-color="#2f4f4f" flood-opacity="0.161"/>
      <feComposite operator="in" in2="blur"/>
      <feComposite in="SourceGraphic"/>
    </filter>
  </defs>
  <g transform="matrix(1, 0, 0, 1, 0, 0)" filter="url(#people-group-solid)">
    <path id="people-group-solid-2" data-name="people-group-solid" d="M184,88a56,56,0,1,1-56-56A56.036,56.036,0,0,1,184,88Zm24.4,108.3A143.743,143.743,0,0,0,160,304c0,34.3,11.1,65.8,32,90.5V416a31.966,31.966,0,0,1-32,32H96a31.985,31.985,0,0,1-32-32V389.2A112,112,0,0,1,112,176h32a113.646,113.646,0,0,1,64.4,20.3ZM64,245.7a63.915,63.915,0,0,0,0,84.6ZM448,416V394.5a144,144,0,0,0-16.4-198.2A111.515,111.515,0,0,1,496,176h32a112,112,0,0,1,48,213.2V416a31.966,31.966,0,0,1-32,32H480A31.966,31.966,0,0,1,448,416Zm128-85.7c9.1-11.2,16-26.1,16-42.3s-6.9-31.1-16-42.3ZM568,88a56,56,0,1,1-56-56A56.036,56.036,0,0,1,568,88ZM256,96a64,64,0,1,1,64,64A64.027,64.027,0,0,1,256,96ZM448,304a112.05,112.05,0,0,1-64,101.2V448a31.966,31.966,0,0,1-32,32H288a31.966,31.966,0,0,1-32-32V405.2A112,112,0,0,1,304,192h32A111.944,111.944,0,0,1,448,304ZM256,346.3V261.7a63.915,63.915,0,0,0,0,84.6Zm128-84.6v84.6c9.1-11.3,16-26.1,16-42.3S393.1,272.9,384,261.7Z" transform="translate(9 -26)" fill="#6495ed"/>
  </g>
</svg>
