<svg xmlns="http://www.w3.org/2000/svg" xmlns:xlink="http://www.w3.org/1999/xlink" width="545.072" height="545.013" viewBox="0 0 545.072 545.013">
  <defs>
    <filter id="tooth-solid" x="0" y="0" width="545.072" height="545.013" filterUnits="userSpaceOnUse">
      <feOffset dx="2.5" dy="2.5" input="SourceAlpha"/>
      <feGaussianBlur stdDeviation="2.5" result="blur"/>
      <feFlood flood-color="#2f4f4f" flood-opacity="0.161"/>
      <feComposite operator="in" in2="blur"/>
      <feComposite in="SourceGraphic"/>
    </filter>
  </defs>
  <g transform="matrix(1, 0, 0, 1, 0, 0)" filter="url(#tooth-solid)">
    <path id="tooth-solid-2" data-name="tooth-solid" d="M503.509,233.751c-26.1,30.876-36.551,67.119-40.6,104.836-4.881,46.13-11.439,92.014-23.3,137.029l-8.789,33.074c-3.49,13.547-17.305,23.188-33.061,23.188-15.626,0-29.155-9.274-32.932-22.574l-38.5-135.243c-5.117-17.787-23.347-30.285-44.312-30.285-21.069,0-39.338,12.565-44.364,30.385L199.145,509.4c-3.767,13.3-17.436,22.574-32.931,22.574-15.9,0-29.572-9.64-33.205-23.188l-8.65-33.074C112.5,430.68,105.947,384.8,102.092,338.688c-5.075-38.765-15.531-74.027-41.626-104.936-24.416-28.923-35.3-67.119-24-107.759C48.744,81.815,89.062,45.929,139.142,34.457c26.225-5.858,51.487-.488,74.639,10.129l112.167,63.091c8.65,4.882,19.676,2.076,24.689-4.758,5.3-7.2,2.93-16.838-5.443-21.6l-31.525-17.7c3.906-1.708,8.093-3.052,11.719-5.371,29.155-18.791,63.479-31.97,99.471-23.8,50.08,11.471,90.408,47.346,102.674,91.535C538.8,166.688,527.989,204.962,503.509,233.751Z" transform="translate(-11.96 -11.97)" fill="#fff" stroke="#2f4f4f" stroke-width="30"/>
  </g>
</svg>
